HIERARCHY
ROOT SpineBase
{
  OFFSET 0.000000 0.000000 0.000000
  CHANNELS 6 Xposition Yposition Zposition Zrotation Xrotation Yrotation
  JOINT SpineMid
  {
    OFFSET 0.000000 36.394261 0.000000
    CHANNELS 3 Zrotation Xrotation Yrotation
    JOINT SpineShoulder
    {
      OFFSET -0.033612 26.967464 -0.929324
      CHANNELS 3 Zrotation Xrotation Yrotation
      JOINT Neck
      {
        OFFSET -0.013005 8.894769 -0.682487
        CHANNELS 3 Zrotation Xrotation Yrotation
        JOINT Head
        {
          OFFSET 7.011468 8.925909 5.225415
          CHANNELS 3 Zrotation Xrotation Yrotation
          End Site
          {
            OFFSET 0 0 0
          }
        }
      }
      JOINT ShoulderLeft
      {
        OFFSET -2.379706 -4.845490 -14.971565
        CHANNELS 3 Zrotation Xrotation Yrotation
        JOINT ElbowLeft
        {
          OFFSET 4.615208 -26.041959 -4.883428
          CHANNELS 3 Zrotation Xrotation Yrotation
          JOINT WristLeft
          {
            OFFSET 6.712494 -22.336871 3.620775
            CHANNELS 3 Zrotation Xrotation Yrotation
            JOINT HandLeft
            {
              OFFSET -0.143792 -6.311920 2.465113
              CHANNELS 3 Zrotation Xrotation Yrotation
              JOINT HandTipLeft
              {
                OFFSET 0.849540 -7.872056 1.257866
                CHANNELS 3 Zrotation Xrotation Yrotation
                End Site
                {
                  OFFSET 0 0 0
                }
              }
              JOINT ThumbLeft
              {
                OFFSET -4.206519 1.053945 -0.344127
                CHANNELS 3 Zrotation Xrotation Yrotation
                End Site
                {
                  OFFSET 0 0 0
                }
              }
            }
          }
        }
      }
      JOINT ShoulderRight
      {
        OFFSET 12.853277 -8.236569 -19.217828
        CHANNELS 3 Zrotation Xrotation Yrotation
        JOINT ElbowRight
        {
          OFFSET -10.348828 -19.989814 -14.302951
          CHANNELS 3 Zrotation Xrotation Yrotation
          JOINT WristRight
          {
            OFFSET 3.877244 -18.173073 4.506959
            CHANNELS 3 Zrotation Xrotation Yrotation
            JOINT HandRight
            {
              OFFSET -0.253947 3.256001 7.723369
              CHANNELS 3 Zrotation Xrotation Yrotation
              JOINT HandTipRight
              {
                OFFSET 1.182561 -3.657147 0.252897
                CHANNELS 3 Zrotation Xrotation Yrotation
                End Site
                {
                  OFFSET 0 0 0
                }
              }
              JOINT ThumbRight
              {
                OFFSET 1.769591 -3.227008 -0.927786
                CHANNELS 3 Zrotation Xrotation Yrotation
                End Site
                {
                  OFFSET 0 0 0
                }
              }
            }
          }
        }
      }
    }
  }
  JOINT HipLeft
  {
    OFFSET -6.242545 3.438300 -7.278260
    CHANNELS 3 Zrotation Xrotation Yrotation
    JOINT KneeLeft
    {
      OFFSET 1.695060 -31.373561 2.882852
      CHANNELS 3 Zrotation Xrotation Yrotation
      JOINT AnkleLeft
      {
        OFFSET -7.338173 -33.760422 2.917451
        CHANNELS 3 Zrotation Xrotation Yrotation
        JOINT FootLeft
        {
          OFFSET 4.534032 -7.073547 -3.198081
          CHANNELS 3 Zrotation Xrotation Yrotation
          End Site
          {
            OFFSET 0 0 0
          }
        }
      }
    }
  }
  JOINT HipRight
  {
    OFFSET 6.472805 -1.724634 -0.659413
    CHANNELS 3 Zrotation Xrotation Yrotation
    JOINT KneeRight
    {
      OFFSET -13.824908 -31.059244 13.647442
      CHANNELS 3 Zrotation Xrotation Yrotation
      JOINT AnkleRight
      {
        OFFSET -4.730170 -33.474636 -7.476965
        CHANNELS 3 Zrotation Xrotation Yrotation
        JOINT FootRight
        {
          OFFSET 1.705065 1.029992 -13.071324
          CHANNELS 3 Zrotation Xrotation Yrotation
          End Site
          {
            OFFSET 0 0 0
          }
        }
      }
    }
  }
}
MOTION
Frames: 7
Frame Time: 0.033333
-5.982686 78.007102 352.119636 -0.576420 -2.530811 -58.849065 -1.190264 -0.173156 58.807915 -0.141497 0.170718 -0.063330 7.850955 -8.628360 5.182061 0.000000 0.000000 0.000000 -17.193133 4.318183 5.209217 19.165307 5.260497 -0.510935 1.269710 0.704858 -2.531126 9.824145 -16.622692 3.223165 0.000000 0.000000 0.000000 0.000000 0.000000 0.000000 30.482825 -34.029912 10.133969 -57.917511 53.200297 30.552604 141.969123 61.834858 -129.503211 177.284123 -18.411018 -177.308745 0.000000 0.000000 0.000000 0.000000 0.000000 0.000000 -13.953795 -5.442726 57.677732 15.320941 -5.732948 1.910185 -6.184359 -3.848389 -0.863768 0.000000 0.000000 0.000000 0.232531 2.098434 60.113042 0.524244 4.917661 -2.255998 -3.707534 -37.590512 6.146306 0.000000 0.000000 0.000000
-5.854855 78.193980 352.124498 -0.854309 -1.972461 -60.859131 -1.410528 -0.163306 60.806249 -0.144848 0.196477 -0.077950 9.421118 -10.645686 5.882106 0.000000 0.000000 0.000000 -18.267595 3.745178 5.405991 20.239195 6.357702 -0.321489 4.510165 0.897566 -1.518263 5.538178 -16.642854 1.687671 0.000000 0.000000 0.000000 0.000000 0.000000 0.000000 36.438046 -39.514863 15.293950 -76.859587 58.829541 46.778403 114.981815 60.709679 -100.290649 176.658097 -34.338325 -167.920705 0.000000 0.000000 0.000000 0.000000 0.000000 0.000000 -13.333149 -6.471094 59.502105 16.136188 -5.817399 2.079912 -6.464179 -2.821422 -0.342688 0.000000 0.000000 0.000000 4.138623 4.788803 64.378747 -2.614650 3.261349 -4.356592 -3.223764 -31.457073 9.354401 0.000000 0.000000 0.000000
-5.799531 78.299917 352.077205 -1.218892 -1.319271 -60.053359 -1.621776 -0.078406 59.990658 -0.130978 0.206273 -0.094411 11.070083 -12.761174 6.724988 0.000000 0.000000 0.000000 -19.153078 3.337954 5.606567 21.247772 7.143117 -0.103455 7.097255 0.323043 -0.623977 2.800677 -14.002905 0.615410 0.000000 0.000000 0.000000 0.000000 0.000000 0.000000 39.244114 -42.273597 18.927288 -87.706689 61.224910 56.783690 111.915704 61.581802 -94.960489 -174.491708 -40.757164 -157.237964 0.000000 0.000000 0.000000 0.000000 0.000000 0.000000 -12.740325 -6.196896 58.718692 16.247854 -6.091787 2.157264 -6.699266 -1.299070 0.588044 0.000000 0.000000 0.000000 9.392921 7.772479 66.301752 -6.591134 1.857348 -6.883318 -2.542145 -23.881879 14.079990 0.000000 0.000000 0.000000
-5.837495 78.260287 351.981137 -1.687749 -0.601767 -55.993334 -1.700782 0.124290 55.926233 -0.092818 0.167327 -0.110861 12.689150 -14.676563 7.561086 0.000000 0.000000 0.000000 -20.022346 2.832550 5.745491 22.353880 8.056097 0.125497 8.957783 0.334444 -0.050570 1.869515 -13.767050 0.293343 0.000000 0.000000 0.000000 0.000000 0.000000 0.000000 37.160551 -42.109273 19.434128 -85.207282 62.936827 55.459843 113.594682 62.622173 -95.757764 -161.783005 -43.220657 -144.706968 0.000000 0.000000 0.000000 0.000000 0.000000 0.000000 -12.099901 -4.428741 54.929337 15.516656 -6.594698 2.124568 -7.138547 -0.058732 1.495898 0.000000 0.000000 0.000000 15.829762 9.746800 65.071908 -10.744227 0.906597 -9.378118 -0.760579 -14.724153 24.060143 0.000000 0.000000 0.000000
-5.820781 78.301181 351.933935 -2.093509 0.051899 -53.104888 -1.627487 0.234429 53.037620 -0.077895 0.100865 -0.125979 14.192706 -16.192203 8.276624 0.000000 0.000000 0.000000 -20.785517 2.415688 5.854635 23.325719 9.024052 0.353467 9.660316 0.477402 -0.042639 2.748875 -11.717308 0.815007 0.000000 0.000000 0.000000 0.000000 0.000000 0.000000 37.432495 -42.911293 20.752017 -82.948665 63.851461 53.697079 109.343106 43.965179 -94.711807 -177.630683 -45.936854 -141.900218 0.000000 0.000000 0.000000 0.000000 0.000000 0.000000 -11.705867 -3.432368 52.177942 15.312517 -7.016283 2.141630 -7.244167 0.700902 2.037164 0.000000 0.000000 0.000000 23.936086 10.918070 65.905158 -15.824140 6.515964 -12.590588 -0.663559 -9.187065 24.303854 0.000000 0.000000 0.000000
-5.808252 78.351503 351.946702 -2.456076 0.572583 -50.273855 -1.361246 0.272658 50.207031 -0.071181 -0.002472 -0.138238 15.032484 -16.865924 8.632227 0.000000 0.000000 0.000000 -21.508008 2.268670 6.022568 24.235436 9.818412 0.537889 8.606309 -0.593085 -0.783853 2.763629 -8.765713 0.994777 0.000000 0.000000 0.000000 0.000000 0.000000 0.000000 37.543425 -43.157784 21.209989 -80.669675 63.539115 51.297062 105.312517 55.938646 -89.272909 -162.911218 -52.141643 -135.888374 0.000000 0.000000 0.000000 0.000000 0.000000 0.000000 -11.466016 -2.405782 49.499594 15.059548 -7.367477 2.113701 -6.643645 0.585482 1.826663 0.000000 0.000000 0.000000 27.931157 11.935487 64.671028 -18.675210 3.847204 -13.578783 -1.695586 -3.428878 25.828450 0.000000 0.000000 0.000000
-5.772997 78.394299 352.035659 -2.722935 0.930297 -47.418027 -1.053549 0.279760 47.352527 -0.061539 -0.051159 -0.143667 15.060959 -16.846642 8.613274 0.000000 0.000000 0.000000 -22.322133 2.133307 6.176499 25.253625 10.320773 0.610565 4.785580 -2.566661 -2.930907 7.262089 -6.942408 2.988552 0.000000 0.000000 0.000000 0.000000 0.000000 0.000000 37.068585 -43.012052 21.151111 -73.325464 61.779799 43.722215 123.593394 57.870972 -108.639568 -163.547821 -49.883313 -139.019546 0.000000 0.000000 0.000000 0.000000 0.000000 0.000000 -11.409847 -1.445244 46.785682 14.973956 -7.675965 2.105504 -6.183053 0.840029 1.924782 0.000000 0.000000 0.000000 27.742540 12.597971 61.221904 -18.745640 -6.262127 -12.739842 -3.802813 2.629890 28.785898 0.000000 0.000000 0.000000
